<?xml version="1.0" encoding="UTF-8"?><svg id="uuid-7a22816a-bfda-416f-b3e1-a86448094a8f" xmlns="http://www.w3.org/2000/svg" width="90mm" height="90mm" viewBox="0 0 255.12 255.12"><defs><style>.uuid-4c4d3ee1-fccb-494b-af80-64a1c6d1fe3f{fill:#bf4d0d;}.uuid-4c4d3ee1-fccb-494b-af80-64a1c6d1fe3f,.uuid-fac6986e-7f45-40ac-8457-b45678d2dffe,.uuid-00da1d82-6a53-4c88-a3ad-0ac3950e124f{stroke-width:0px;}.uuid-fac6986e-7f45-40ac-8457-b45678d2dffe{fill:#f7e279;}.uuid-00da1d82-6a53-4c88-a3ad-0ac3950e124f{fill:#6eaf86;}</style></defs><polygon class="uuid-4c4d3ee1-fccb-494b-af80-64a1c6d1fe3f" points="158.21 25.33 188.06 62.84 232.95 79.64 206.51 119.62 204.4 167.5 158.21 154.71 112.01 167.5 109.91 119.62 83.46 79.64 128.36 62.84 158.21 25.33"/><polygon class="uuid-fac6986e-7f45-40ac-8457-b45678d2dffe" points="128.47 53.54 158.32 91.04 203.21 107.84 176.77 147.82 174.66 195.71 128.47 182.91 82.27 195.71 80.17 147.82 53.72 107.84 98.62 91.04 128.47 53.54"/><polygon class="uuid-00da1d82-6a53-4c88-a3ad-0ac3950e124f" points="96.91 87.61 126.76 125.12 171.65 141.92 145.21 181.9 143.1 229.78 96.91 216.99 50.72 229.78 48.61 181.9 22.17 141.92 67.06 125.12 96.91 87.61"/></svg>