<?xml version="1.0" encoding="UTF-8"?><svg id="uuid-7aff852c-1caa-4692-9a15-ea9a53138f06" xmlns="http://www.w3.org/2000/svg" width="90mm" height="90mm" viewBox="0 0 255.12 255.12"><defs><style>.uuid-4f0631a0-f832-42d9-87e7-59a49031ad85{fill:#6eaf86;stroke-width:0px;}</style></defs><path class="uuid-4f0631a0-f832-42d9-87e7-59a49031ad85" d="m70.38,234.07c-.36-.8-.07-1.75.69-2.21,8.19-5.03,18.25-12.39,28.08-22.93,14.4-15.43,22.46-31.39,26.98-42.86.57-1.45-.9-2.88-2.32-2.24-21.46,9.68-46.45,7.52-65.42-5.96-25.52-18.14-27.33-47.67-27.36-55.13,0-.92.69-1.67,1.61-1.74,10.18-.75,29.95-.69,51.55,9.41,25.05,11.72,38.72,30.48,44.63,40.16.75,1.23,2.57,1.08,3.11-.25,1.34-3.33,2.63-6.83,3.84-10.5,4.65-14.08,7-27.2,8.1-38.57.09-.92-.56-1.74-1.47-1.88-7.62-1.15-35.07-6.91-50.48-32.8-11.56-19.42-9.64-38.92-8.48-46.11.13-.81.8-1.4,1.61-1.46,6.59-.45,30.01-.69,48.66,17.65,18.6,18.29,18.86,41.71,18.31,49.91-.08,1.24,1.12,2.17,2.3,1.76,5.29-1.83,12.52-3.6,21.17-3.7,15.12-.19,26.82,4.81,33.25,8.27.98.53,1.23,1.82.5,2.67-3.57,4.17-13.28,13.77-28.59,14.86-11.2.8-19.87-3.35-24.33-6.08-1.12-.69-2.57.07-2.64,1.38-.39,6.56-1.29,14.06-3.09,22.22-.99,4.5-2.15,8.69-3.38,12.53-.51,1.59,1.31,2.92,2.66,1.95,3.79-2.72,8.72-5.36,14.79-6.72,16.58-3.71,34.76,3.73,47.73,18.71.47.54.56,1.32.23,1.95-7.53,14.38-22.54,23.11-38.16,22.16-16.64-1.01-26.8-12.54-30.75-18.09-.81-1.14-2.56-.91-3.05.4-8.06,21.64-18.07,37.46-26.04,48.13-.18.24-.39.52-.68.91-12.02,15.89-25.6,25.84-37.92,32.3-.89.46-1.98.07-2.39-.84-1.08-2.41-2.17-4.82-3.25-7.23Z"/></svg>