<?xml version="1.0" encoding="UTF-8"?><svg id="uuid-5c183644-d73f-4783-a622-36044e8fee32" xmlns="http://www.w3.org/2000/svg" width="90mm" height="90mm" viewBox="0 0 255.12 255.12"><defs><style>.uuid-ae679919-52f0-4cc0-8376-d170ada91f62{fill:#bf4d0d;stroke-width:0px;}</style></defs><path class="uuid-ae679919-52f0-4cc0-8376-d170ada91f62" d="m81.39,133.03c-18.28-.69-36.56-1.37-54.83-2.06-3.45-.13-5.97-3.28-5.38-6.69,8.9-51.13,51.67-89.42,101.07-91.91,54.65-2.75,104.82,38.94,112.79,96.05.48,3.41-2.14,6.47-5.58,6.49-17.94.13-35.89.26-53.83.39-3.37.02-5.98,2.96-5.6,6.31,2.61,23.12,5.21,46.25,7.82,69.37.21,1.88-.52,3.73-1.96,4.96-6.61,5.63-24.38,18.48-49.64,17.42-22.97-.97-38.61-12.87-44.85-18.48-1.36-1.22-2.05-3-1.87-4.82,2.43-23.6,4.86-47.2,7.29-70.8.34-3.26-2.16-6.13-5.44-6.26Z"/></svg>