<?xml version="1.0" encoding="UTF-8"?><svg id="uuid-f8e83ba1-cff2-4703-96f5-8581881357ce" xmlns="http://www.w3.org/2000/svg" width="90mm" height="90mm" viewBox="0 0 255.12 255.12"><defs><style>.uuid-177d9077-b972-4047-a51e-f2fdb7f7312e{fill:#f7e279;}.uuid-177d9077-b972-4047-a51e-f2fdb7f7312e,.uuid-db1c2a47-2d40-4101-9b9e-746f9a5039ea{stroke-width:0px;}.uuid-db1c2a47-2d40-4101-9b9e-746f9a5039ea{fill:#6eaf86;}</style></defs><path class="uuid-db1c2a47-2d40-4101-9b9e-746f9a5039ea" d="m73.78,64.25c38.49,13.73,76.98,27.47,115.47,41.2,13.13,4.68,26.25,9.37,39.38,14.05l-48-50.86c-.72-7.28-1.44-14.56-2.16-21.84-7.33,3.83-14.67,7.67-22,11.5-27.56,1.98-55.12,3.96-82.69,5.94Z"/><path class="uuid-db1c2a47-2d40-4101-9b9e-746f9a5039ea" d="m70.88,105.1l.51,38.46c-4.73,2.77-9.46,5.55-14.19,8.32,2.28,2.52,4.56,5.05,6.84,7.57,2.37-1.41,4.74-2.83,7.11-4.24.39,19.76.79,39.52,1.18,59.28h141.77c-.64-20.63-1.28-41.26-1.93-61.89,1.96,2.14,3.93,4.28,5.89,6.42,2.69-2.93,5.37-5.87,8.06-8.8-4.07-3.33-8.13-6.66-12.19-9.99-.03-11.25-.05-22.51-.08-33.76-47.66-.45-95.31-.91-142.97-1.36Z"/><path class="uuid-177d9077-b972-4047-a51e-f2fdb7f7312e" d="m70.08,67.27c5.76-6.83,4.9-17.03-1.53-22.59-6.77-5.86-17.65-4.82-23.36,2.68-2.62-4.95-7.85-7.52-12.25-6.51-5.76,1.32-10.02,8.72-7.27,16.08-.62.59-3.96,3.89-3.83,8.81.13,4.88,3.64,9.36,8.81,11.1-3.12,5.54-3.4,12.1-.38,16.85,4.33,6.82,15.11,9.31,24.12,3.83-1.62,5.61,2.01,10.62,5.74,11.1,3.61.47,8.26-3.19,8.42-8.81,36.12,1.53,72.24,3.06,108.36,4.59-35.61-12.38-71.22-24.76-106.83-37.14Z"/></svg>