<?xml version="1.0" encoding="UTF-8"?><svg id="uuid-df79ae65-f37f-42f6-a30d-47a21a669f82" xmlns="http://www.w3.org/2000/svg" width="82.07mm" height="80.9mm" viewBox="0 0 232.64 229.32"><defs><style>.uuid-38edf23b-b2fe-416e-a149-eee794820abb{fill:#bf4d0d;}.uuid-38edf23b-b2fe-416e-a149-eee794820abb,.uuid-3bb6fcf7-2ab4-446f-9de1-0cdbd3404cfc,.uuid-a0bba8f7-716e-4c37-bc1e-7e56117a6bc2,.uuid-24e4f9c3-4157-45e8-83e0-a377b444bd9a{stroke-width:0px;}.uuid-3bb6fcf7-2ab4-446f-9de1-0cdbd3404cfc{fill:#943a00;}.uuid-a0bba8f7-716e-4c37-bc1e-7e56117a6bc2{fill:#f7e279;}.uuid-24e4f9c3-4157-45e8-83e0-a377b444bd9a{fill:#6eaf86;}</style></defs><circle class="uuid-38edf23b-b2fe-416e-a149-eee794820abb" cx="116.54" cy="115.04" r="110.92"/><path class="uuid-24e4f9c3-4157-45e8-83e0-a377b444bd9a" d="m11.05,99.43c1.02-4.16,10.37-39.79,44.69-54.01,0,0,33.28-13.79,67.8,5.94,6.77,3.87,9.34,7.23,9.51,10.5.27,5.24-5.64,9.34-16.81,16.8-11.38,7.61-21.51,14.22-30.05,19.73-2.21,4.71-1.27,10.27,2.29,13.82,3.17,3.16,7.94,4.27,12.31,2.87,10.32-2.67,20.68-.57,26.44,5.98,9.22,10.48,3.17,28.36-5.98,37.2-12.07,11.67-31.62,9.61-44.07,2.44-15.96-9.2-23.97-29.04-18.88-48.23-9.4,7.79-18.8,15.57-28.2,23.36-7.82,6.06-12.01,5.1-13.48,4.54-7.39-2.77-10.12-19-5.57-40.95Z"/><path class="uuid-3bb6fcf7-2ab4-446f-9de1-0cdbd3404cfc" d="m71.22,184.02s.83-.32,1.54-.01c.56.24.86.79,1.02,1.2-.07-.32-.2-1.1.18-1.94.16-.35.36-.61.53-.79-.29.23-.73.54-1.31.83-.99.48-1.97.67-1.96.72Z"/><path class="uuid-a0bba8f7-716e-4c37-bc1e-7e56117a6bc2" d="m207.95,66.31c.7-13.68-9-25.8-22.31-28.11-13.62-2.36-27.09,6.23-30.71,19.78-2.15,7.55-6.89,20.34-17.72,32.75-7.47,8.56-15.33,14.05-21.13,17.44,3.97,3.44,9.48,7.52,16.62,11.08,9,4.48,17.25,6.46,23.19,7.39-.33,4.8-1.39,11.66-4.92,18.88-10.05,20.5-29.03,21.39-32.72,36.81-2.37,9.92,2.69,21.18,9.88,26.87,14.26,11.3,39.34,2.67,51.89-10.85,11.52-12.41,12.47-28.9,13.02-38.47.64-11.2-1.2-20.43-2.87-26.47,4.99.73,10.79,1.26,17.24,1.27,6.02.01,11.47-.43,16.21-1.06-3.78-8.31-7.69-18.64-10.67-30.78-3.43-13.97-4.67-26.46-4.98-36.53Z"/></svg>