<?xml version="1.0" encoding="UTF-8"?><svg id="uuid-d5949d39-50c2-4782-92fe-cfd2171467ee" xmlns="http://www.w3.org/2000/svg" width="96.91mm" height="92.25mm" viewBox="0 0 274.72 261.49"><defs><style>.uuid-11bd2db7-8d6a-4f2d-ab30-3be8aa4e55b2{fill:#bf4d0d;}.uuid-11bd2db7-8d6a-4f2d-ab30-3be8aa4e55b2,.uuid-807bf680-0f5b-4d6e-aeda-e0bfa455634f,.uuid-269814f1-0f30-4e00-b578-4c640c6a87d7,.uuid-43076dad-d071-4994-add9-cfcfc4951fd2,.uuid-8ab9fcb4-f7f6-4381-ae74-a04a1d2c4e33,.uuid-f9ffd247-dc3c-4b8f-b9dc-2096d28274a1,.uuid-5f465eb0-0ca2-4943-8dd5-977a2a0848b6{stroke-width:0px;}.uuid-807bf680-0f5b-4d6e-aeda-e0bfa455634f{fill:#943a00;}.uuid-269814f1-0f30-4e00-b578-4c640c6a87d7{fill:#f7e279;}.uuid-43076dad-d071-4994-add9-cfcfc4951fd2{fill:#2d140d;}.uuid-8ab9fcb4-f7f6-4381-ae74-a04a1d2c4e33{fill:#fff;}.uuid-f9ffd247-dc3c-4b8f-b9dc-2096d28274a1{fill:#ef7550;}.uuid-5f465eb0-0ca2-4943-8dd5-977a2a0848b6{fill:#6eaf86;}</style></defs><circle class="uuid-11bd2db7-8d6a-4f2d-ab30-3be8aa4e55b2" cx="139.68" cy="145.05" r="110.92"/><path class="uuid-43076dad-d071-4994-add9-cfcfc4951fd2" d="m139.57,147.39c7.11,32.54,14.23,65.08,21.34,97.62-9.59-31.99-19.19-63.98-28.78-95.97-.43.1-2.73.56-5-.88-1.43-.91-2.52-2.37-2.91-4.16l-17.51-78.8c-.79-3.58,1.46-7.12,5.04-7.91.25-4.07.51-8.14.76-12.22,2.23,3.52,4.45,7.04,6.68,10.56.43-.1,2.73-.56,5,.88,1.43.91,2.52,2.37,2.91,4.16l17.51,78.8c.79,3.58-1.46,7.12-5.04,7.91Z"/><path class="uuid-5f465eb0-0ca2-4943-8dd5-977a2a0848b6" d="m47.89,95.68c.46-1.89,4.71-18.08,20.31-24.54,0,0,15.12-6.27,30.8,2.7,3.08,1.76,4.24,3.28,4.32,4.77.12,2.38-2.56,4.24-7.64,7.64-5.17,3.46-9.78,6.46-13.65,8.96,2.41,5.87,4.87,7.31,6.63,7.59,2.71.43,3.98-1.86,7.86-1.96,2.77-.08,6.23.97,8.15,3.28,3.63,4.34,1.65,12.91-3.2,17.16-6.15,5.38-15.7,2.52-20.55-.23-10.29-5.84-11.47-18.1-11.57-19.42-4.27,3.54-8.54,7.08-12.81,10.61-3.56,2.75-5.46,2.32-6.13,2.07-3.36-1.26-4.6-8.63-2.53-18.61Z"/><path class="uuid-5f465eb0-0ca2-4943-8dd5-977a2a0848b6" d="m151.76,147.73c3.92-5.76,17.61-27.41,13.72-56.24-2.41-17.85-10.48-30.53-15.16-36.8-3.13,2.29-7.19,2.38-9.93.37-3.82-2.81-3.92-8.88-.93-12.12,3.66-3.97,11.16-2.81,13.62,1.54,2.03,3.6-.23,7.91-.43,8.3,2.75,3.69,5.52,8.02,8.02,13.01,8.62,17.22,9.71,33.73,9.39,44.18,2.85-5.3,8.77-18.12,6.5-34.27-.91-6.5-2.91-11.84-4.83-15.8-3.04.44-6.01-.65-7.66-2.89-2.49-3.36-1.68-8.81,2.07-11.04,4.04-2.41,9.74,0,11.03,4.2.84,2.72-.26,5.91-2.74,8.07,1.88,3.82,4.27,9.72,5.28,17.2,1.79,13.24-1.82,23.48-5.45,33.4-3.42,9.35-9.9,23.67-22.48,38.89Z"/><path class="uuid-43076dad-d071-4994-add9-cfcfc4951fd2" d="m220.53,99.68c-.37,4.9,2.64,8.31,3.22,8.95-5.02,5.98-7.02,11.76-5,14.38.37.48.96.97,1.96,1.29,1.03,2.33,3.19,6.36,7.37,10.04,3.83,3.37,7.72,4.99,10.07,5.77.98,1.81,1.97,3.63,2.95,5.44-.39-2.05-.77-4.11-1.16-6.16,1.01-2.13,2.35-5.69,2.52-10.24.25-6.98-2.43-12.18-3.73-14.37,1-1.37,1.04-2.31.91-2.9-.58-2.69-6.06-4.38-13.79-4.16-2.45-2.27-3.11-5.87-1.64-8.79,1.38-2.75,4.39-4.36,7.5-4.01-.35-.11-1.84-.61-2.77-2.19-.89-1.52-.65-3.01-.58-3.38-4.45,1.82-7.5,5.83-7.84,10.33Z"/><path class="uuid-f9ffd247-dc3c-4b8f-b9dc-2096d28274a1" d="m215.66,92.55c-.59.94-3.85,5.82-9.48,5.97-3.85.1-6.51-2.06-8.31-3.51-1.92-1.56-5.38-5.07-4.42-6.85.14-.26.85-1.36,4.55-1.01-.65-.63-1.48-1.58-2.2-2.89-.56-1.03-1.94-3.59-1.08-4.65.74-.92,3.11-.66,5.67.77-.21-3.82-.58-12.9.92-13.16,1.44-.25,3.96,7.8,5.07,11.56.3-.37,3.55-4.32,5.09-3.61,1.24.57,1.21,4.08-.19,8.67,3.87-2.59,5.33-1.77,5.62-1.58,2,1.3,1,6.75-1.24,10.3Z"/><path class="uuid-f9ffd247-dc3c-4b8f-b9dc-2096d28274a1" d="m99.95,160.46c-2.64,3.59-2.38,8.41.33,11.69-.92,1.48-1.1,3.23-.58,4.79-1.04,1.79-1.87,2.73-2.54,3.07-.57-.36-1.18-.62-1.8-.8-.75-1.14-2.1-3.57-2.36-6.93-.21-2.73.4-4.91.84-6.13.45-.41.86-.86,1.23-1.37,3.11-4.23,2.21-10.18-2.02-13.29-4.23-3.11-10.18-2.21-13.29,2.02-3.19,4.33-2,10.57,2.02,13.29,4.13,2.81,9.2.49,9.46.37-.18,1.41-.29,3.35.05,5.61.4,2.69,1.27,4.8,1.98,6.2-.9.04-1.78.26-2.6.65-.64-1.14-1.52-2.16-2.64-2.98-4.23-3.11-10.18-2.21-13.29,2.02s-2.21,10.18,2.02,13.29c3.89,2.86,9.23,2.32,12.49-1.07.11.09.21.18.33.27,2.47,1.82,5.76,1.7,8.08-.06,3.14,5.37,7.04,8.85,9.63,10.81-.68.57-1.48,1.17-2.35,1.78-1.22.09-2.41.46-3.47,1.11.91-3.19-.18-6.75-3.01-8.84-3.64-2.68-8.76-1.9-11.44,1.74-2.68,3.64-1.9,8.76,1.74,11.44.02.02.05.03.07.05-1.57.64-3,1.69-4.08,3.16-3.11,4.23-2.21,10.18,2.02,13.29s10.18,2.21,13.29-2.02c1.25-1.69,1.84-3.66,1.84-5.61,3.28,1.75,7.44.88,9.71-2.21,2.5-3.39,1.77-8.16-1.62-10.66-.22-.16-.44-.31-.67-.44.18-.22.32-.4.42-.54,3.08,2.89,8.08,8.36,11.42,16.69,4.32,10.76,3.46,20.31,2.79,24.66.52-4.11,2.8-7.45,6.01-8.53,1.39-.47,2.72-.43,3.77-.25-1.59-7.16-4.03-12.48-5.91-15.93-2.2-4.05-4.96-9.12-8.92-13.78,3.2-.13,5.79-2.71,5.85-5.95.06-3.05-2.14-5.59-5.06-6.09,2.43-4.47.92-10.09-3.49-12.71-4.51-2.68-10.35-1.2-13.03,3.32-1.46,2.46-1.68,5.31-.85,7.83-1.09-1.18-2.12-2.57-2.99-4.21,1.33-2.19,1.27-4.89,0-6.99.33-.55.67-1.1,1-1.66.27-.45.53-.9.79-1.34.13.14.33.33.59.51,2.09,1.5,6.12,1.28,7.95-1.21.76-1.04,1.1-2.25,1.09-3.44,1.75-.61,3.34-1.73,4.52-3.33,3.11-4.23,2.21-10.18-2.02-13.29s-10.18-2.21-13.29,2.02Zm12.63,40.53c-.48-.37-.98-.72-1.48-1.07.53.01,1.07-.02,1.59-.09-.06.33-.11.66-.12,1,0,.05.01.1.01.16Z"/><path class="uuid-807bf680-0f5b-4d6e-aeda-e0bfa455634f" d="m94.36,214.03s.83-.32,1.54-.01c.56.24.86.79,1.02,1.2-.07-.32-.2-1.1.18-1.94.16-.35.36-.61.53-.79-.29.23-.73.54-1.31.83-.99.48-1.97.67-1.96.72Z"/><path class="uuid-269814f1-0f30-4e00-b578-4c640c6a87d7" d="m44.67,141.2c-3.95-9.65.89-18.65,6.24-19.99,4.79-1.2,12.08,3.24,14.6,11.67,2.56-.45,4.82-.62,6.69-.65,3.7-.06,6.57-.07,7.34,1.48.51,1.03-.14,2.31-.4,2.82-1.71,3.36-6.53,3.54-6.96,3.55,2.46,1.63,3.39,4.33,2.56,6.06-1.19,2.49-5.53,1.9-6.07,1.82-2.92-.4-4.75-2.29-5.35-2.96,3.38,3.01,4.48,6.64,3.22,8.57-.79,1.21-2.31,1.44-2.44,1.46-2.3.31-4.94-1.71-6.14-5.18-.99,7.35-1.59,18.67,1.53,31.88,4.36,18.46,13.73,31.04,19.14,37.3-.11.66-.29,1.97-.27,3.61.09,6.58,3.4,11.02,3.22,11.13-.39.23-21.13-20.02-26.22-51.81-2.04-12.75-1.06-23.75.37-31.67-.39,1.23-1.08,3.06-2.34,5.05-1.2,1.9-3.28,5.19-5.09,4.81-1.76-.37-2.33-3.96-2.43-4.54-.39-2.45.31-4.44.72-5.39-1.01.61-4.01,2.23-7.75,1.57-.83-.14-4.54-.76-6.11-3.69-.41-.78-.79-1.48-.57-2.24.38-1.35,2.27-1.75,6.74-2.99,1.49-.41,3.46-.97,5.78-1.67Z"/><path class="uuid-5f465eb0-0ca2-4943-8dd5-977a2a0848b6" d="m155.01,240.19c-5.01-18.74-10.31-34.38-14.84-46.51-5.18-13.88-9.5-23.53-17.65-33.65-3.7-4.59-7.2-8.06-9.73-10.39,1.87,2.44,4.79,6.51,7.75,11.88,10.48,19,9.02,31.87,15.34,48.66,2.81,7.48,8.13,18.3,19.13,30.02Z"/><path class="uuid-43076dad-d071-4994-add9-cfcfc4951fd2" d="m217.98,106.79c-.96,0-2.91.13-5,1.26-1.8.97-2.89,2.25-3.45,3,4.15,5.99,5.39,11.69,3.16,14.14-.41.45-1.04.9-2.04,1.18-1.17,2.26-3.55,6.17-7.95,9.6-4.02,3.14-7.99,4.53-10.39,5.17-1.09,1.75-2.17,3.51-3.26,5.26.51-2.03,1.01-4.05,1.52-6.08-.88-2.18-2.02-5.81-1.91-10.37.16-6.98,3.13-12.01,4.56-14.13-.92-1.42-.9-2.37-.74-2.95.74-2.66,6.31-4.02,14.01-3.34.68-1.47,1.66-3.22,3.08-5.03,2.31-2.94,4.83-4.82,6.66-5.95-.1,1.48-.04,3.61.75,5.96.29.87.64,1.64.99,2.3Z"/><path class="uuid-5f465eb0-0ca2-4943-8dd5-977a2a0848b6" d="m163.78,239.3c-4.86-16.57-6.94-30.6-7.92-40.61-1.36-13.89-2.07-21.91.41-31.88,3.96-15.91,13.52-26.65,19.49-32.29-4.98,9.11-7.54,17.15-8.93,22.74-3.5,14-3.01,25.79-2.64,33.3.56,11.33,2.02,12.68,2.23,22.74.24,11.12-1.32,20.17-2.64,25.99Z"/><path class="uuid-269814f1-0f30-4e00-b578-4c640c6a87d7" d="m204.16,141.53c3.82-5.34,10.68-7.4,16.44-5.12,4.99,1.98,8.39,6.9,8.61,12.5-2.39,7.84-4.73,19.06-3.99,32.49.34,6.14,1.25,11.61,2.37,16.3-3.05.33-6.82.48-11.1.08-4.96-.46-9.14-1.53-12.35-2.6-6.11,7.36-7.07,13.11-6.89,16.91.29,6.21,3.31,8.52,2.44,14.71-.25,1.79-1.56,9-7.96,12.49-5.4,2.94-12.91,2.4-17.03-1.73-5.19-5.21-2.92-14.03-1.46-19.62,3.62-13.86,13.65-22.83,20.25-27.56-2.73-1.24-5.89-2.95-9.19-5.29-4.85-3.45-8.39-7.14-10.85-10.16,4.21-1.84,9.97-4.97,15.66-10.23,9.14-8.46,13.25-17.96,15.05-23.16Z"/><path class="uuid-8ab9fcb4-f7f6-4381-ae74-a04a1d2c4e33" d="m55.75,66.52c-10.11-4.2-21.11-7.36-32.82-9.21,1.12-1.62,2.29-3.21,3.49-4.77,5.7,1.21,11.22,2.72,16.53,4.49,4.38,1.45,8.14,2.99,11.47,4.78.02-.03.05-.05.07-.08-1.99-3.16-3.87-6.91-5.69-10.9-2.29-5.03-4.46-10.16-6.47-15.37,1.47-1.31,2.97-2.58,4.5-3.82,3.42,10.82,7.57,21.28,12.19,31.37-1.11,1.14-2.2,2.31-3.26,3.5Z"/><path class="uuid-8ab9fcb4-f7f6-4381-ae74-a04a1d2c4e33" d="m54.98,25.55c6.77,8.07,13.19,16.29,19.27,24.62-1.19.82-2.36,1.67-3.52,2.54-6.39-8.12-13.15-16.1-20.26-23.92,1.48-1.11,2.98-2.2,4.51-3.25Z"/><path class="uuid-8ab9fcb4-f7f6-4381-ae74-a04a1d2c4e33" d="m63.2,20.32c1.61-.94,3.24-1.85,4.89-2.73,5.13,7.75,10.02,15.58,14.68,23.47,4.37-2.34,8.9-4.4,13.57-6.16.43,1.01.86,2.03,1.29,3.04-5.89,2.23-11.58,4.96-16.96,8.14-5.5-8.68-11.32-17.28-17.46-25.76Z"/><path class="uuid-8ab9fcb4-f7f6-4381-ae74-a04a1d2c4e33" d="m91.23,8.26c3.14-1.39,7.03-2.79,11.45-3.82,8.03-1.85,14.2-1.31,18.32.69,4.22,2.01,6.7,5.33,7.17,10.13.47,4.85-1.07,8.93-3.97,12.04-2.92,3.17-7.82,5.4-14.23,7.03-3.04.77-5.59,1.41-7.78,1.9-3.45-9.35-7.11-18.67-10.97-27.96Zm14.24,23.8c1.16-.15,2.77-.54,4.49-.96,9.28-2.24,13.97-7.15,12.91-15.22-.82-6.92-7.36-11.11-19.03-8.52-2.81.65-4.86,1.39-6.19,2,2.72,7.55,5.33,15.12,7.82,22.7Z"/><path class="uuid-8ab9fcb4-f7f6-4381-ae74-a04a1d2c4e33" d="m178.93,23.81c1.14-3.91,2.5-8.62,3.86-12-.06-.02-.12-.04-.18-.06-2.6,2.76-5.47,5.69-8.58,9.02-3.64,3.9-6.98,7.97-10.05,12.16-1.1-.23-2.2-.45-3.3-.66-.9-4.9-2.01-9.82-3.38-14.73-1.2-4.36-2.36-8.33-3.15-11.95-.04,0-.08,0-.13-.01-.56,3.63-1.44,8.5-2.25,12.86-.79,4.15-1.54,8.32-2.23,12.49-1.41-.12-2.81-.22-4.22-.3,1.32-9.8,2.9-19.56,4.75-29.27,2.44.21,4.87.48,7.29.81,1.83,5.04,3.37,10.08,4.66,15.12.91,3.84,1.46,7.23,1.68,10.38.05.01.11.02.16.03,1.55-2.7,3.6-5.55,6.28-8.7,3.52-4,7.34-7.85,11.45-11.52,2.32.71,4.62,1.48,6.89,2.29-2.99,9.26-6,18.51-8.98,27.76-1.35-.49-2.71-.95-4.07-1.39,1.17-4.11,2.34-8.22,3.52-12.33Z"/><path class="uuid-8ab9fcb4-f7f6-4381-ae74-a04a1d2c4e33" d="m194.74,34.05c-2.64,2.1-5.19,4.29-7.62,6.54-1.38-.61-2.78-1.2-4.19-1.75,7.54-7.45,16.18-14.19,25.9-19.96,1.98,1.07,3.94,2.19,5.86,3.35-1.61,10.36-4.03,20.4-7.02,30.12-1.25-.9-2.52-1.78-3.81-2.63.82-3.1,1.57-6.22,2.26-9.38-3.66-2.29-7.46-4.39-11.38-6.29Zm12.26,3.39c.59-2.91,1.13-5.84,1.6-8.79.32-2.01.77-3.74,1.19-5.44-.04-.02-.07-.04-.11-.06-1.53,1.12-3.11,2.26-4.77,3.38-2.69,1.73-5.3,3.53-7.82,5.41,3.39,1.69,6.7,3.53,9.9,5.5Z"/><path class="uuid-8ab9fcb4-f7f6-4381-ae74-a04a1d2c4e33" d="m231.45,34.6c2.81,1.88,5.98,4.35,9.05,7.38,5.56,5.52,7.99,10.55,8.17,14.58.21,4.12-1.56,7.45-5.53,9.89-4.02,2.48-8.27,3.1-12.41,2.2-4.2-.89-8.63-3.77-13.38-8.11-2.25-2.06-4.14-3.79-5.71-5.31,6.3-7.08,12.9-13.97,19.81-20.64Zm-14.48,21.32c.73.85,1.91,1.95,3.16,3.13,6.77,6.37,13.28,7.81,19.84,3.48,5.68-3.63,6.4-10.42-1.62-18.48-1.96-1.93-3.63-3.23-4.84-4.02-5.71,5.15-11.23,10.46-16.54,15.9Z"/></svg>