<?xml version="1.0" encoding="UTF-8"?><svg xmlns="http://www.w3.org/2000/svg" width="100mm" height="100mm" viewBox="0 0 283.46 283.46"><defs><style>.uuid-cb2f3d08-61c2-4792-b53d-1813b5bbefa4{fill:#a67c52;stroke:#000;stroke-miterlimit:10;}.uuid-48da07f4-21e3-4533-81be-cfed9d6b8239{fill:#6eaf86;stroke-width:0px;}</style></defs><g id="uuid-6d11f96d-ddcb-4128-a7ca-61b41eb1148a"><path class="uuid-cb2f3d08-61c2-4792-b53d-1813b5bbefa4" d="m16.1,529.86c-5.03-20.45,2.51-40.98,18.09-50.89,15.14-9.63,31.85-5.4,35.06-4.52,16.61-39.79,38.29-60.64,55.41-72.37,41.39-28.37,98.38-44.1,98.38-44.1,19.32-5.34,37.15-8.51,41.84-21.49,4.95-13.72-6.23-34.37-9.05-39.58-3.23-5.97-6.62-10.49-9.05-13.44h36.67v207.95c-4.41-.09-14.43.33-24.23,6.79-17.63,11.6-19.09,32.52-19.22,35.06h-45.23c-1.89-9.15-3.44-21.58-2.26-36.19.78-9.66,2.57-18.04,4.52-24.88-9.36-1.33-28.79-2.8-50.89,5.65-17.92,6.86-29.83,17.28-36.19,23.75-9.19,2.68-20.02,6.59-31.66,12.44-10.28,5.16-18.94,10.7-26.01,15.83H16.1Z"/><path class="uuid-cb2f3d08-61c2-4792-b53d-1813b5bbefa4" d="m283.46,490.4c11.22-2.58,43.67-8.49,78.92,7.48,23.14,10.48,37.55,25.89,44.84,34.99,14.96-.14,29.92-.27,44.88-.41-.64-4.07-1.91-10.05-4.67-16.82-9.87-24.2-29.18-34.91-27.1-38.32,1.59-2.61,14.48,1.14,26.17,7.48,10.53,5.71,29.08,18.42,43.93,46.73,11.53.31,23.05.62,34.58.93-5.34-16.48-17.48-46.46-44.86-74.77-23.87-24.68-49.09-37.51-64.49-43.93,9.7-13.82,12.87-26.37,14.02-34.58,4.85-34.81-15.7-71.42-51.4-95.72h-94.8v206.94Z"/></g><g id="uuid-d539ea1d-2a63-4c23-98e3-ca8ad041b5ad"><path class="uuid-cb2f3d08-61c2-4792-b53d-1813b5bbefa4" d="m378.27,283.46c-14.47-7.62-23.06-22.24-21.5-36.06,2.12-18.72,22.74-34.76,46.73-30.84,9.72-2.72,22.32-7.43,35.51-15.89,23.99-15.39,37.32-35.1,43.83-46.54-17.59,7.23-37.86,14.36-60.65,20.38-29.42,7.76-56.34,11.9-79.44,14.02,3.28-15.8,8.48-33.95,16.82-53.27,20.18-46.71,49.34-78.4,70.09-97.2-16.38,12.3-33.86,27.11-51.4,44.86-40.12,40.59-66.43,82.27-83.59,115.7-4.01.71-7.74.72-11.22.19-49.82-7.63-66.26-128.95-67.81-141.12,1.25,40.5,2.49,81,3.74,121.5-10.15-2.18-28.09-7.47-45.79-21.5-25.05-19.85-34.29-45.04-37.38-55.14-1.2,10.73-2.3,34.31,9.94,59.69,19,39.4,55.81,53.35,63.9,56.2-10.01,3.57-28.35,8.65-51.4,6.54-26.16-2.39-45.03-12.79-54.21-18.69,25.7,27.09,49.01,36.18,65.62,39.45,21.74,4.28,42.8.72,61.01,16.06,8.56,7.21,13.2,15.83,15.73,21.67h131.47Z"/></g><g id="uuid-e1ec4b4b-2404-4c97-ab90-b904dc180c7b"><path class="uuid-48da07f4-21e3-4533-81be-cfed9d6b8239" d="m241.57,211.92c-9.17,12.53-4.36,36.2,15.73,45.98-2.46,5.97-5.74,9.73-8.47,12.1-13.09,11.39-36.08,10.68-58.08-1.21-9.78,3.3-27.63,7.83-49.61,4.84-32.99-4.49-54.24-23.04-61.71-30.25-19.62.84-37.97-8.99-47.19-25.41-10.93-19.48-7.18-44.96,9.68-61.71,1.77-4.59,10.87-26.81,35.2-37.3,15.71-6.78,30.01-5.32,36.32-4.27-.41-1.4-7.01-25.84,9.61-43.79,11.35-12.26,26.25-13.65,29.91-13.89-.67-17.47,9.96-33.22,25.7-38.69,17.61-6.12,37.98,1.92,47.19,19.36,2.81-4.14,8.87-11.81,19.36-16.94,17.5-8.57,34.26-3.7,38.26-2.42v188.77c-15.53-9.48-34.13-5.77-41.89,4.84Z"/></g></svg>