<?xml version="1.0" encoding="UTF-8"?><svg xmlns="http://www.w3.org/2000/svg" width="100mm" height="100mm" viewBox="0 0 283.46 283.46"><defs><style>.uuid-5027a253-e6e3-42c0-9ef5-564d93d0264f{fill:#a67c52;}.uuid-5027a253-e6e3-42c0-9ef5-564d93d0264f,.uuid-30bf1aef-e99d-427e-9551-473b330eb895{stroke-width:0px;}.uuid-30bf1aef-e99d-427e-9551-473b330eb895{fill:#6eaf86;}</style></defs><g id="uuid-0674ecb0-355e-4bff-b697-9c78017fdb31"><path class="uuid-5027a253-e6e3-42c0-9ef5-564d93d0264f" d="m378.27,283.46c-14.47-7.62-23.06-22.24-21.5-36.06,2.12-18.72,22.74-34.76,46.73-30.84,9.72-2.72,22.32-7.43,35.51-15.89,23.99-15.39,37.32-35.1,43.83-46.54-17.59,7.23-37.86,14.36-60.65,20.38-29.42,7.76-56.34,11.9-79.44,14.02,3.28-15.8,8.48-33.95,16.82-53.27,20.18-46.71,49.34-78.4,70.09-97.2-16.38,12.3-33.86,27.11-51.4,44.86-40.12,40.59-66.43,82.27-83.59,115.7-4.01.71-7.74.72-11.22.19-49.82-7.63-66.26-128.95-67.81-141.12,1.25,40.5,2.49,81,3.74,121.5-10.15-2.18-28.09-7.47-45.79-21.5-25.05-19.85-34.29-45.04-37.38-55.14-1.2,10.73-2.3,34.31,9.94,59.69,19,39.4,55.81,53.35,63.9,56.2-10.01,3.57-28.35,8.65-51.4,6.54-26.16-2.39-45.03-12.79-54.21-18.69,25.7,27.09,49.01,36.18,65.62,39.45,21.74,4.28,42.8.72,61.01,16.06,8.56,7.21,13.2,15.83,15.73,21.67h131.47Z"/></g><g id="uuid-e72df342-7e01-437e-8c4b-c5914a328392"><path class="uuid-30bf1aef-e99d-427e-9551-473b330eb895" d="m241.57,211.92c-9.17,12.53-4.36,36.2,15.73,45.98-2.46,5.97-5.74,9.73-8.47,12.1-13.09,11.39-36.08,10.68-58.08-1.21-9.78,3.3-27.63,7.83-49.61,4.84-32.99-4.49-54.24-23.04-61.71-30.25-19.62.84-37.97-8.99-47.19-25.41-10.93-19.48-7.18-44.96,9.68-61.71,1.77-4.59,10.87-26.81,35.2-37.3,15.71-6.78,30.01-5.32,36.32-4.27-.41-1.4-7.01-25.84,9.61-43.79,11.35-12.26,26.25-13.65,29.91-13.89-.67-17.47,9.96-33.22,25.7-38.69,17.61-6.12,37.98,1.92,47.19,19.36,2.81-4.14,8.87-11.81,19.36-16.94,17.5-8.57,34.26-3.7,38.26-2.42v188.77c-15.53-9.48-34.13-5.77-41.89,4.84Z"/></g></svg>