<?xml version="1.0" encoding="UTF-8"?><svg xmlns="http://www.w3.org/2000/svg" width="100mm" height="100mm" viewBox="0 0 283.46 283.46"><defs><style>.uuid-4f276ff3-bb73-4d3d-88f0-ea773c84a3b9{fill:#a67c52;}.uuid-4f276ff3-bb73-4d3d-88f0-ea773c84a3b9,.uuid-17960770-d23b-479b-8677-3eb4e0593eca,.uuid-40810c3e-e3b3-43ff-90a2-63f692486b56,.uuid-e6fb9027-220f-487b-8215-21e372da1963{stroke-width:0px;}.uuid-17960770-d23b-479b-8677-3eb4e0593eca{fill:#ffacc8;}.uuid-40810c3e-e3b3-43ff-90a2-63f692486b56{fill:#ef7550;}.uuid-e6fb9027-220f-487b-8215-21e372da1963{fill:#6eaf86;}</style></defs><g id="uuid-6005f55d-751e-4fb6-82be-9fd5d79f5395"><path class="uuid-4f276ff3-bb73-4d3d-88f0-ea773c84a3b9" d="m196.67,457.69c-23.87-24.68-49.09-37.51-64.49-43.93,9.7-13.82,12.87-26.37,14.02-34.58,4.85-34.81-15.7-71.42-51.4-95.72-14.47-7.62-23.06-22.24-21.5-36.06,2.12-18.72,22.74-34.76,46.73-30.84,9.72-2.72,22.32-7.43,35.51-15.89,23.99-15.39,37.32-35.1,43.83-46.54-17.59,7.23-37.86,14.36-60.65,20.38-29.42,7.76-56.34,11.9-79.44,14.02,3.28-15.8,8.48-33.95,16.82-53.27,20.18-46.71,49.34-78.4,70.09-97.2-16.38,12.3-33.86,27.11-51.4,44.86C54.69,123.51,28.38,165.19,11.22,198.62c-4.01.71-7.74.72-11.22.19-49.82-7.63-66.26-128.95-67.81-141.12,1.25,40.5,2.49,81,3.74,121.5-10.15-2.18-28.09-7.47-45.79-21.5-25.05-19.85-34.29-45.04-37.38-55.14-1.2,10.73-2.3,34.31,9.94,59.69,19,39.4,55.81,53.35,63.9,56.2-10.01,3.57-28.35,8.65-51.4,6.54-26.16-2.39-45.03-12.79-54.21-18.69,25.7,27.09,49.01,36.18,65.62,39.45,21.74,4.28,42.8.72,61.01,16.06,8.56,7.21,13.2,15.83,15.73,21.67,2.43,2.96,5.82,7.48,9.05,13.44,2.82,5.21,14,25.86,9.05,39.58-4.69,12.98-22.52,16.15-41.84,21.49,0,0-56.99,15.74-98.38,44.1-17.12,11.73-38.81,32.58-55.41,72.37-3.21-.88-19.92-5.1-35.06,4.52-15.58,9.91-23.13,30.44-18.09,50.89h36.19c7.07-5.13,15.73-10.67,26.01-15.83,11.64-5.84,22.48-9.76,31.66-12.44,6.35-6.47,18.27-16.89,36.19-23.75,22.1-8.46,41.53-6.99,50.89-5.65-1.96,6.83-3.75,15.22-4.52,24.88-1.18,14.6.37,27.04,2.26,36.19h45.23c.14-2.53,1.6-23.45,19.22-35.06C-14.43,491.75-4.41,491.32,0,491.42v-1.01c11.22-2.58,43.67-8.49,78.92,7.48,23.14,10.48,37.55,25.89,44.84,34.99,14.96-.14,29.92-.27,44.88-.41-.64-4.07-1.91-10.05-4.67-16.82-9.87-24.2-29.18-34.91-27.1-38.32,1.59-2.61,14.48,1.14,26.17,7.48,10.53,5.71,29.08,18.42,43.93,46.73,11.53.31,23.05.62,34.58.93-5.34-16.48-17.48-46.46-44.86-74.77Z"/></g><g id="uuid-49b08db0-905b-4bfc-904c-84330bbc2127"><path class="uuid-e6fb9027-220f-487b-8215-21e372da1963" d="m-41.89,211.92c-9.17,12.53-4.36,36.2,15.73,45.98-2.46,5.97-5.74,9.73-8.47,12.1-13.09,11.39-36.08,10.68-58.08-1.21-9.78,3.3-27.63,7.83-49.61,4.84-32.99-4.49-54.24-23.04-61.71-30.25-19.62.84-37.97-8.99-47.19-25.41-10.93-19.48-7.18-44.96,9.68-61.71,1.77-4.59,10.87-26.81,35.2-37.3,15.71-6.78,30.01-5.32,36.32-4.27-.41-1.4-7.01-25.84,9.61-43.79,11.35-12.26,26.25-13.65,29.91-13.89-.67-17.47,9.96-33.22,25.7-38.69,17.61-6.12,37.98,1.92,47.19,19.36,2.81-4.14,8.87-11.81,19.36-16.94C-20.76,12.17-4,17.03,0,18.31v188.77c-15.53-9.48-34.13-5.77-41.89,4.84Z"/><path class="uuid-17960770-d23b-479b-8677-3eb4e0593eca" d="m0,18.31C4.89,15.17,25.41,2.77,52.49,7.42c21.47,3.69,34.96,16.01,39.7,20.78,4.13-2.26,20.36-10.49,38.95-5.05,20.86,6.1,36.19,26.93,37.51,52.03,4.26,1.58,22.48,8.9,32.67,29.04,11.63,22.99,3.77,44.85,2.42,48.4,27.56,9.56,39.84,37.99,31.46,58.08-6.02,14.43-22.54,24.15-41.14,24.2-1.97,2.44-14.35,17.29-35.09,18.15-13.64.57-23.68-5.22-27.49-7.7-.25,1.13-4.57,18.94-20.91,24.64-14.11,4.92-31.02-1.33-39.93-15.73-2.7.97-24.75,8.46-45.98-4.84C1.83,235.13.11,209.42,0,207.08V18.31Z"/><path class="uuid-40810c3e-e3b3-43ff-90a2-63f692486b56" d="m86.37,93.33c-2.56-14.23,5.55-24.81,12.28-25.23,5.89-.37,13.51,6.86,15.55,17.97,12.49-5.05,23.7.15,25.41,6.05,1.56,5.37-3.89,14.27-14.52,18.15,2.83,10.47-3.44,19.55-9.68,20.57-6.36,1.04-15.4-5.83-15.73-16.94-14.51,4.82-26.09,2.3-27.83-2.42-1.6-4.32,4.41-12.24,14.52-18.15Z"/><path class="uuid-40810c3e-e3b3-43ff-90a2-63f692486b56" d="m42.77,127.14c10.2-5.27,19.93-2.83,21.7,1.33,1.55,3.64-2.27,10.33-10.23,14.47,6.5,6.63,4.98,15.08.9,17.68-3.72,2.36-11.62,1.19-16.84-4.57-7.3,4.48-15.51,2.82-17.62-.87-2.16-3.77,1.09-11.27,9.41-14.32-6.77-7.97-7.35-15.97-4.16-18.28,2.92-2.12,10.19-.34,16.84,4.57Z"/><path class="uuid-40810c3e-e3b3-43ff-90a2-63f692486b56" d="m176.55,175.57c13.69,2.06,21.36,11.53,20.08,16.99-1.13,4.78-9.65,8.75-20.34,7.18,1.53,11.36-6.03,18.76-11.87,18.42-5.31-.31-12.12-7.19-13.03-16.74-10.3-.76-17.06-8.35-16.45-13.59.62-5.35,9.17-10.54,19.44-7.61-.81-12.9,4.38-21.36,9.14-21.38,4.36-.02,10.13,7.01,13.03,16.74Z"/><path class="uuid-40810c3e-e3b3-43ff-90a2-63f692486b56" d="m48.27,39.27c7.47,1.12,11.66,6.29,10.96,9.27-.61,2.61-5.27,4.78-11.1,3.92.83,6.2-3.29,10.24-6.48,10.05-2.9-.17-6.61-3.92-7.11-9.13-5.62-.42-9.31-4.55-8.98-7.42.34-2.92,5.01-5.76,10.61-4.15-.44-7.04,2.39-11.66,4.99-11.67,2.38-.01,5.53,3.83,7.11,9.13Z"/><path class="uuid-40810c3e-e3b3-43ff-90a2-63f692486b56" d="m70.66,220.26c7.47,1.12,11.66,6.29,10.96,9.27-.61,2.61-5.27,4.78-11.1,3.92.83,6.2-3.29,10.24-6.48,10.05-2.9-.17-6.61-3.92-7.11-9.13-5.62-.42-9.31-4.55-8.98-7.42.34-2.92,5.01-5.76,10.61-4.15-.44-7.04,2.39-11.66,4.99-11.67,2.38-.01,5.53,3.83,7.11,9.13Z"/></g></svg>