<?xml version="1.0" encoding="UTF-8"?><svg xmlns="http://www.w3.org/2000/svg" width="100mm" height="100mm" viewBox="0 0 283.46 283.46"><defs><style>.uuid-a6e2b015-9948-4671-be83-a91ab1dc0570{fill:#bf4d0d;}.uuid-a6e2b015-9948-4671-be83-a91ab1dc0570,.uuid-aa55f09f-7d56-474f-8d8e-d9a03533966d,.uuid-2f62b7a3-6e97-4a30-8cad-326f162ba55c{stroke-width:0px;}.uuid-aa55f09f-7d56-474f-8d8e-d9a03533966d{fill:#94d7e7;}.uuid-8aa39aa7-2d3a-4d06-86c7-2435b4ede30f{fill:#a67c52;stroke:#000;stroke-miterlimit:10;}.uuid-2f62b7a3-6e97-4a30-8cad-326f162ba55c{fill:#fff;}</style></defs><g id="uuid-7c4146e0-b5d3-413a-b1ba-177d398fb46e"><path class="uuid-a6e2b015-9948-4671-be83-a91ab1dc0570" d="m-281.56,85.46C-187.71,84.89-93.85,84.32,0,83.75v199.72h-283.46c.64-66,1.27-132.01,1.91-198.01Z"/><path class="uuid-2f62b7a3-6e97-4a30-8cad-326f162ba55c" d="m-1.33,76.52l285.38-1.78v207.7H.59C-.05,213.81-.69,145.17-1.33,76.52Z"/><path class="uuid-8aa39aa7-2d3a-4d06-86c7-2435b4ede30f" d="m-267.36,246.4c-5.03-20.45,2.51-40.98,18.09-50.89,15.14-9.63,31.85-5.4,35.06-4.52,16.61-39.79,38.29-60.64,55.41-72.37,41.39-28.37,98.38-44.1,98.38-44.1,19.32-5.34,37.15-8.51,41.84-21.49,4.95-13.72-6.23-34.37-9.05-39.58C-30.85,7.48-34.24,2.96-36.67,0H0v207.95c-4.41-.09-14.43.33-24.23,6.79-17.63,11.6-19.09,32.52-19.22,35.06h-45.23c-1.89-9.15-3.44-21.58-2.26-36.19.78-9.66,2.57-18.04,4.52-24.88-9.36-1.33-28.79-2.8-50.89,5.65-17.92,6.86-29.83,17.28-36.19,23.75-9.19,2.68-20.02,6.59-31.66,12.44-10.28,5.16-18.94,10.7-26.01,15.83h-36.19Z"/><path class="uuid-8aa39aa7-2d3a-4d06-86c7-2435b4ede30f" d="m0,206.94c11.22-2.58,43.67-8.49,78.92,7.48,23.14,10.48,37.55,25.89,44.84,34.99,14.96-.14,29.92-.27,44.88-.41-.64-4.07-1.91-10.05-4.67-16.82-9.87-24.2-29.18-34.91-27.1-38.32,1.59-2.61,14.48,1.14,26.17,7.48,10.53,5.71,29.08,18.42,43.93,46.73,11.53.31,23.05.62,34.58.93-5.34-16.48-17.48-46.46-44.86-74.77-23.87-24.68-49.09-37.51-64.49-43.93,9.7-13.82,12.87-26.37,14.02-34.58C151.06,60.91,130.51,24.3,94.8,0H0v206.94Z"/><path class="uuid-2f62b7a3-6e97-4a30-8cad-326f162ba55c" d="m121.83,140.14c-3.32-10.99,2.22-21.06,9.61-23.06,7.21-1.95,13.98,4.39,14.41,4.8,23.64,8.69,40.07,19.99,49.97,27.87,14.43,11.48,48.66,38.74,44.2,67.26-1.19,7.64-5.91,20.17-14.41,21.14-8.08.92-17.3-6.15-19.22-17.3-3.22-10.9-13.21-39.26-41.32-60.53-16.41-12.42-32.79-17.74-43.24-20.18Z"/><path class="uuid-aa55f09f-7d56-474f-8d8e-d9a03533966d" d="m207.29,202.48c3.49,16.12,10,26.58,15.74,26.32,5.89-.26,10.99-11.82,11.19-21.06.49-22.82-28.84-37.29-30.44-38.05,14.44,17.94,20.1,28.86,16.98,32.78-1.75,2.19-6.23,2.19-13.46,0Z"/></g><g id="uuid-4cbc2219-d83f-409f-b88b-145714b5426a"><path class="uuid-2f62b7a3-6e97-4a30-8cad-326f162ba55c" d="m51.78,50.81c18.56-19.2,19.99-35.76,36.42-40.38,16.68-4.7,33.81,7.92,41.32,13.45,16.84,12.4,22.98,28.68,25.94,36.51,4.62,12.24,4.42,20.27,3.84,24.98-.6,4.9-1.81,14.81-7.69,17.3-6.14,2.6-16.42-3.29-24.02-15.37-.59,4.15-1.7,10.59-3.84,18.26-9.29,33.23-35.9,81.67-74.75,86.13-4.09.47-19.23,2.21-31.91-7.34C-1.72,170.18.49,142.92.76,140.14v-59.57c25.49-7.69,41.14-19.54,51.02-29.76Z"/><path class="uuid-aa55f09f-7d56-474f-8d8e-d9a03533966d" d="m11.33,150.71c.59,2.5,5.44,21.92,22.1,28.83,17.9,7.42,42.84-2.35,54.77-25.94-4.72,3.29-17.88,11.53-36.51,11.53-21.55,0-36.18-11.02-40.36-14.41Z"/><path class="uuid-aa55f09f-7d56-474f-8d8e-d9a03533966d" d="m131.44,79.61c11.35,10.26,18.4,14.43,21.14,12.49,3.8-2.68-.68-17.1-13.45-43.24.85,2.24,3.77,10.77,0,20.18-2.17,5.41-5.63,8.83-7.69,10.57Z"/></g><g id="uuid-f85b72bd-c512-4d73-ae94-4ec317340ff2"><path class="uuid-8aa39aa7-2d3a-4d06-86c7-2435b4ede30f" d="m94.8,0c-14.47-7.62-23.06-22.24-21.5-36.06,2.12-18.72,22.74-34.76,46.73-30.84,9.72-2.72,22.32-7.43,35.51-15.89,23.99-15.39,37.32-35.1,43.83-46.54-17.59,7.23-37.86,14.36-60.65,20.38-29.42,7.76-56.34,11.9-79.44,14.02,3.28-15.8,8.48-33.95,16.82-53.27,20.18-46.71,49.34-78.4,70.09-97.2-16.38,12.3-33.86,27.11-51.4,44.86C54.69-159.95,28.38-118.27,11.22-84.84,7.21-84.13,3.48-84.12,0-84.66c-49.82-7.63-66.26-128.95-67.81-141.12,1.25,40.5,2.49,81,3.74,121.5-10.15-2.18-28.09-7.47-45.79-21.5-25.05-19.85-34.29-45.04-37.38-55.14-1.2,10.73-2.3,34.31,9.94,59.69,19,39.4,55.81,53.35,63.9,56.2-10.01,3.57-28.35,8.65-51.4,6.54-26.16-2.39-45.03-12.79-54.21-18.69,25.7,27.09,49.01,36.18,65.62,39.45,21.74,4.28,42.8.72,61.01,16.06C-43.83-14.46-39.19-5.84-36.67,0H94.8Z"/></g></svg>