<?xml version="1.0" encoding="UTF-8"?><svg xmlns="http://www.w3.org/2000/svg" width="100mm" height="100mm" viewBox="0 0 283.46 283.46"><defs><style>.uuid-8278723e-d98c-49d6-8dca-21d908422974{fill:#bf4d0d;}.uuid-8278723e-d98c-49d6-8dca-21d908422974,.uuid-2469a8ae-f931-450b-b84d-60d39b9f9e69,.uuid-459a645d-42c7-4dbf-a24f-3878b5d6ba9a,.uuid-9fa041d4-636a-4f7d-b45f-a94154224d4f,.uuid-75c3a440-4f85-484b-843a-ff94a4710562,.uuid-8ccf75db-8dc6-4567-8f34-e73af9a875bb,.uuid-2666c65b-0689-4305-9d9f-324f4c768140{stroke-width:0px;}.uuid-2469a8ae-f931-450b-b84d-60d39b9f9e69{fill:#f7e279;}.uuid-459a645d-42c7-4dbf-a24f-3878b5d6ba9a{fill:#a67c52;}.uuid-9fa041d4-636a-4f7d-b45f-a94154224d4f{fill:#eda71d;}.uuid-75c3a440-4f85-484b-843a-ff94a4710562{fill:#ffc923;}.uuid-8ccf75db-8dc6-4567-8f34-e73af9a875bb{fill:#fff;}.uuid-2666c65b-0689-4305-9d9f-324f4c768140{fill:#ef7550;}</style></defs><g id="uuid-5bb2eff1-fdf5-487a-b8f2-4e3068d279a4"><path class="uuid-8278723e-d98c-49d6-8dca-21d908422974" d="m1.91,85.46c93.85-.57,187.71-1.14,281.56-1.71v199.72H0c.64-66,1.27-132.01,1.91-198.01Z"/><path class="uuid-8ccf75db-8dc6-4567-8f34-e73af9a875bb" d="m282.14,76.52l285.38-1.78v207.7h-283.46c-.64-68.64-1.28-137.28-1.92-205.92Z"/><path class="uuid-75c3a440-4f85-484b-843a-ff94a4710562" d="m45.71,204.85c-21.1-22.02,10.21-113.77,72.08-132.54,4.43-1.34,41.15-11.84,72.08,10.08,14.29,10.12,34.6,32.31,30.23,54.26-4.16,20.89-28.53,30.61-72.08,47.28-57.56,22.03-89.54,34.26-102.31,20.93Z"/><path class="uuid-2666c65b-0689-4305-9d9f-324f4c768140" d="m49.6,155.86c-10.26,14.47-13.97,34.84-7.36,37.87,5.5,2.53,18.12-6.99,24.85-16.69,10.4-14.97,10.39-35.52,3.5-37.56-5.72-1.69-16.08,9.45-21,16.38Z"/><path class="uuid-2666c65b-0689-4305-9d9f-324f4c768140" d="m60.58,111.82c-12.12,11.14-19.67,28.14-14.45,31.54,4.35,2.83,17.53-3.78,25.53-11.27,12.35-11.55,16.64-29.16,10.97-31.74-4.72-2.15-16.24,6.13-22.04,11.47Z"/><path class="uuid-2666c65b-0689-4305-9d9f-324f4c768140" d="m97.57,121.83c-12.59,12.49-19.74,31.92-13.75,36.05,4.99,3.43,19.05-3.78,27.35-12.18,12.81-12.96,16.33-33.21,9.9-36.4-5.35-2.65-17.47,6.54-23.5,12.53Z"/><path class="uuid-2469a8ae-f931-450b-b84d-60d39b9f9e69" d="m101.27,97.35c-10.37,8.13-17.13,23.58-12.89,28.54,3.53,4.13,14.65.96,21.5-4.55,10.58-8.49,14.64-25.48,10.01-29.71-3.85-3.52-13.64,1.82-18.62,5.72Z"/><path class="uuid-2469a8ae-f931-450b-b84d-60d39b9f9e69" d="m100.59,73.4c-14.58,3.24-28.23,13.16-25.68,18.22,2.12,4.21,15.47,5.01,25.16,2.77,14.94-3.46,26.32-15.35,23.04-19.97-2.73-3.84-15.53-2.58-22.51-1.03Z"/><path class="uuid-2469a8ae-f931-450b-b84d-60d39b9f9e69" d="m135.07,77.24c-9.27,3.03-12.2,15.59-9.35,24.3,2.09,6.39,8.14,13.24,14.95,13.08,10-.22,19.71-15.47,14.95-26.79-3.11-7.4-12.44-13.25-20.56-10.59Z"/><path class="uuid-2469a8ae-f931-450b-b84d-60d39b9f9e69" d="m167.41,87.82c15.79,6.06,34.69,5.42,35.28-.79.49-5.17-11.73-14.16-22.27-18.11-16.27-6.08-34.17-2.23-33.81,4.03.31,5.2,13.23,11.97,20.8,14.87Z"/><path class="uuid-459a645d-42c7-4dbf-a24f-3878b5d6ba9a" d="m16.1,246.4c-5.03-20.45,2.51-40.98,18.09-50.89,15.14-9.63,31.85-5.4,35.06-4.52,16.61-39.79,38.29-60.64,55.41-72.37,41.39-28.37,98.38-44.1,98.38-44.1,19.32-5.34,37.15-8.51,41.84-21.49,4.95-13.72-6.23-34.37-9.05-39.58C252.61,7.48,249.22,2.96,246.79,0h36.67v207.95c-4.41-.09-14.43.33-24.23,6.79-17.63,11.6-19.09,32.52-19.22,35.06h-45.23c-1.89-9.15-3.44-21.58-2.26-36.19.78-9.66,2.57-18.04,4.52-24.88-9.36-1.33-28.79-2.8-50.89,5.65-17.92,6.86-29.83,17.28-36.19,23.75-9.19,2.68-20.02,6.59-31.66,12.44-10.28,5.16-18.94,10.7-26.01,15.83H16.1Z"/><path class="uuid-75c3a440-4f85-484b-843a-ff94a4710562" d="m249.33,266.94c2.05-45.79-19.81-83.28-50.31-92.5-22.95-6.93-44.47,4.05-50.31,7.03-43.5,22.21-49.05,74.96-49.51,80.07,17.79,6.85,46.05,15.23,81.46,15.45,28.62.18,52.23-5.04,68.67-10.05Z"/><path class="uuid-2666c65b-0689-4305-9d9f-324f4c768140" d="m115.61,227.33c-6.72,10.35-5.82,21.68-5.14,26.43,3.26-.86,11.81-3.58,17.35-11.65,6.74-9.82,6.76-24.25,2.45-26.21-3.75-1.71-11.05,5.87-14.65,11.43Z"/><path class="uuid-9fa041d4-636a-4f7d-b45f-a94154224d4f" d="m123.27,196.6c-8.46,7.77-13.73,19.64-10.08,22.01,3.04,1.98,12.23-2.64,17.82-7.86,8.62-8.06,11.62-20.35,7.65-22.15-3.29-1.5-11.33,4.28-15.38,8Z"/><path class="uuid-2666c65b-0689-4305-9d9f-324f4c768140" d="m149.09,203.59c-8.4,9.04-9.45,20.35-9.6,25.16,3.36-.29,12.25-1.5,19.09-8.5,8.33-8.52,10.82-22.73,6.91-25.4-3.4-2.32-11.89,3.89-16.4,8.74Z"/><path class="uuid-2666c65b-0689-4305-9d9f-324f4c768140" d="m246.61,232.75c6.72,10.35,5.82,21.68,5.14,26.43-3.26-.86-11.81-3.58-17.35-11.65-6.74-9.82-6.76-24.25-2.45-26.21,3.75-1.71,11.05,5.87,14.65,11.43Z"/><path class="uuid-2666c65b-0689-4305-9d9f-324f4c768140" d="m181.84,258.04c7.59,7.71,9.5,17.24,10.08,22.01-3.63-.36-11.49-1.69-17.82-7.86-7.64-7.44-10.81-19.75-7.65-22.15,2.82-2.14,10.93,3.47,15.38,8Z"/><path class="uuid-2666c65b-0689-4305-9d9f-324f4c768140" d="m213.14,209.01c8.4,9.04,9.45,20.35,9.6,25.16-3.36-.29-12.25-1.5-19.09-8.5-8.33-8.52-10.82-22.73-6.91-25.4,3.4-2.32,11.89,3.89,16.4,8.74Z"/><path class="uuid-2469a8ae-f931-450b-b84d-60d39b9f9e69" d="m211.6,195.76c8.39,6.65,8.93,17.46,9,19.92-2.16.33-9.09,1.11-15.01-3.17-7.91-5.72-10.42-17.88-6.99-20.74,2.73-2.27,9.44,1.18,12.99,3.99Z"/><path class="uuid-2469a8ae-f931-450b-b84d-60d39b9f9e69" d="m211.03,175.2c9.48,2.61,15.3,9.24,17.92,12.72-3,1.36-9.78,3.9-17.56,1.94-9.38-2.37-17.47-10.61-16.08-13.94,1.25-2.97,10.16-2.24,15.71-.72Z"/><path class="uuid-2469a8ae-f931-450b-b84d-60d39b9f9e69" d="m186.97,177.89c6.41,2.1,8.69,10.79,6.52,16.96-2.4,6.83-9.67,8.92-10.44,9.13-8.99-3.28-13-12.29-10.44-18.7,2.07-5.18,8.68-9.25,14.35-7.39Z"/><path class="uuid-2469a8ae-f931-450b-b84d-60d39b9f9e69" d="m164.39,185.27c-10.39,3.37-19.85,1.04-24.62-.55,2.09-3.21,7-9.68,15.54-12.64,10.24-3.54,22.84-1.05,23.59,2.81.68,3.48-8.24,8.34-14.51,10.38Z"/><path class="uuid-2469a8ae-f931-450b-b84d-60d39b9f9e69" d="m165.02,202.38c-6.87,8.21-17.7,8.46-20.15,8.46-.27-2.16-.87-9.11,3.57-14.91,5.93-7.75,18.15-9.94,20.92-6.43,2.2,2.79-1.43,9.41-4.34,12.88Z"/><path class="uuid-2666c65b-0689-4305-9d9f-324f4c768140" d="m187.5,224.63c2.14,12.19-1.62,26.15-6.69,26.08-4.22-.05-9.33-9.83-10.68-17.96-2.08-12.55,4.08-25.51,9.03-24.73,4.11.65,7.31,10.77,8.34,16.61Z"/><path class="uuid-2666c65b-0689-4305-9d9f-324f4c768140" d="m146.95,261.41c-7.21,10.02-18.09,13.28-22.77,14.37-.38-3.35-.94-12.3,4.57-20.39,6.71-9.85,20.15-15.09,23.54-11.78,2.95,2.88-1.47,12.43-5.34,17.8Z"/><path class="uuid-2666c65b-0689-4305-9d9f-324f4c768140" d="m217.52,251.52c7.49,9.81,7.46,21.17,7.14,25.96-3.32-.61-12.05-2.67-18.19-10.29-7.48-9.28-8.6-23.66-4.44-25.95,3.61-1.99,11.47,5.01,15.49,10.27Z"/><path class="uuid-2469a8ae-f931-450b-b84d-60d39b9f9e69" d="m133.06,209.28c-9.12,8.46-20.03,8.97-22.92,9.01.31-2.29,1.76-11,9.45-17.66,9.56-8.28,21.1-6.79,22.84-6.53-.94,3.17-3.34,9.59-9.37,15.19Z"/><path class="uuid-2469a8ae-f931-450b-b84d-60d39b9f9e69" d="m198.29,221.24c.29,10.92-4.62,19.33-7.5,23.46-2.49-2.92-7.3-9.45-7.72-18.48-.5-10.82,5.46-22.2,9.37-21.83,3.53.34,5.67,10.27,5.85,16.86Z"/><path class="uuid-2469a8ae-f931-450b-b84d-60d39b9f9e69" d="m238.37,199.57c8.22,7.19,11.07,16.51,12.15,21.42-3.83-.15-11.9-1.04-18.82-6.87-8.29-6.97-12.61-19.07-9.68-21.7,2.64-2.37,11.39,2.8,16.35,7.14Z"/><path class="uuid-2469a8ae-f931-450b-b84d-60d39b9f9e69" d="m129.14,34.97c-7.27,6.95-19.69,7.86-30.1,1.52,4.58-.23,12.8-1.24,21.67-6,7.32-3.93,12.15-8.84,14.93-12.14.02,2.02-.14,10.55-6.49,16.62Z"/><path class="uuid-2469a8ae-f931-450b-b84d-60d39b9f9e69" d="m205.75,77.31c7.27,6.95,19.69,7.86,30.1,1.52-4.58-.23-12.8-1.24-21.67-6-7.32-3.93-12.15-8.84-14.93-12.14-.02,2.02.14,10.55,6.49,16.62Z"/><path class="uuid-2469a8ae-f931-450b-b84d-60d39b9f9e69" d="m123.82,164.18c-7.27,6.95-19.69,7.86-30.1,1.52,4.58-.23,12.8-1.24,21.67-6,7.32-3.93,12.15-8.84,14.93-12.14.02,2.02-.14,10.55-6.49,16.62Z"/></g><g id="uuid-63c28a15-21e0-45b3-b1f6-8b5f9f8390ac"><path class="uuid-459a645d-42c7-4dbf-a24f-3878b5d6ba9a" d="m378.27,0c-14.47-7.62-23.06-22.24-21.5-36.06,2.12-18.72,22.74-34.76,46.73-30.84,9.72-2.72,22.32-7.43,35.51-15.89,23.99-15.39,37.32-35.1,43.83-46.54-17.59,7.23-37.86,14.36-60.65,20.38-29.42,7.76-56.34,11.9-79.44,14.02,3.28-15.8,8.48-33.95,16.82-53.27,20.18-46.71,49.34-78.4,70.09-97.2-16.38,12.3-33.86,27.11-51.4,44.86-40.12,40.59-66.43,82.27-83.59,115.7-4.01.71-7.74.72-11.22.19-49.82-7.63-66.26-128.95-67.81-141.12,1.25,40.5,2.49,81,3.74,121.5-10.15-2.18-28.09-7.47-45.79-21.5-25.05-19.85-34.29-45.04-37.38-55.14-1.2,10.73-2.3,34.31,9.94,59.69,19,39.4,55.81,53.35,63.9,56.2-10.01,3.57-28.35,8.65-51.4,6.54-26.16-2.39-45.03-12.79-54.21-18.69,25.7,27.09,49.01,36.18,65.62,39.45,21.74,4.28,42.8.72,61.01,16.06C239.63-14.46,244.27-5.84,246.79,0h131.47Z"/></g></svg>